# xmcd
#
# Track frame offsets: 
#        150
#        9455
#        19212
#        30738
#        40517
#        48900
#        60221
#        71646
#        79547
#        88741
#        100271
#        109249
#        118058
#        127294
#        137115
#        148331
#        158221
#        168222
#        176644
#        186848
#
# Disc length: 2624 seconds
#
# Revision: 0
# Processed by: cddbd v1.5.2PL0 Copyright (c) Steve Scherf et al.
# Submitted via: ExactAudioCopy v0.99pb5
#
DISCID=120a3e14
DTITLE=Various Artist - Rock-A-Billy CD06 - Be Bop Baby
DYEAR=1900
DGENRE=
TTITLE0=Ricky Nelson - Be Bop Baby
TTITLE1=Carl Perkins  - Matchbox
TTITLE2=Billy Riley - Red Hot
TTITLE3=Don Gibson - I'm Movin' On
TTITLE4=Danny Wolfe - Let's Flat Get It
TTITLE5=Ronnie Self - Rocky Road Blues
TTITLE6=Kenny Parchman - I Feel Like Rockin'
TTITLE7=Eddie Cochran - Twenty Flight Rock
TTITLE8=Bobby Lee Trammell - You Mostest Girl
TTITLE9=Gene Vincent - Woman Love
TTITLE10=Johnny Horton  - I'm A One Woman Man
TTITLE11=Jack Scott  - Two Timin' Woman
TTITLE12=Jimmy Edwards - Love Bug Crawl
TTITLE13=Brenda Lee - Jambalaya
TTITLE14=Johnny Cash - Mean  Eyed Cat
TTITLE15=Wayne Williams - Red Hot Mama
TTITLE16=Elvis Presley - You're A Heartbreaker
TTITLE17=Carl Mann - Gonna Rock And Roll Tonight
TTITLE18=Johnny Burnette Rock and Roll Trio  - The Train Kept A Rollin'
TTITLE19=George and Earl - Done Gone
EXTD=
EXTT0=
EXTT1=
EXTT2=
EXTT3=
EXTT4=
EXTT5=
EXTT6=
EXTT7=
EXTT8=
EXTT9=
EXTT10=
EXTT11=
EXTT12=
EXTT13=
EXTT14=
EXTT15=
EXTT16=
EXTT17=
EXTT18=
EXTT19=
PLAYORDER=
